# xmcd
#
# Track frame offsets:
#	150
#	21575
#	45795
#	72740
#	86090
#	102405
#	125052
#	143992
#	166197
#	186500
#
# Disc length: 3015 seconds
#
# Revision: 1
# Processed by: cddbd v1.5.1PL0 Copyright (c) Steve Scherf et al.
# Submitted via: CDex 1.50Beta5
#
DISCID=940bc50a
DTITLE=佐藤博 - タッチ・ザ・ハート
DYEAR=1989
DGENRE=Pop
TTITLE0=Stop The Rain
TTITLE1=Fuzzy Love
TTITLE2=Another Land
TTITLE3=Adieu
TTITLE4=Missing Link
TTITLE5=My Home Town
TTITLE6=Rosy Heart
TTITLE7=Paradise
TTITLE8=Bayside Hotel
TTITLE9=Touch The Heart
EXTD=
EXTT0=
EXTT1=
EXTT2=
EXTT3=
EXTT4=
EXTT5=
EXTT6=
EXTT7=
EXTT8=
EXTT9=
PLAYORDER=
